#Comment line ignore any data following # character 
#Hierarchical Translation and Rotation (.htr) file 
[Header]	
#Header keywords are followed by a single value 
FileType HTR		#Single word string
DataType HTRS		#Translation followed by rotation and scale data
FileVersion 1		#integer
NumSegments 84		#integer
NumFrames 2		#integer
DataFrameRate 30		#integer, data frame rate in this file
EulerRotationOrder ZYX
CalibrationUnits mm
RotationUnits Degrees
GlobalAxisofGravity Y
BoneLengthAxis Y
ScaleFactor 1.00
[SegmentNames&Hierarchy]
#CHILD	PARENT
MASTER GLOBAL
root MASTER
chest root
L_mid_tent01 root
R_mid_tent01 root
spine01 root
Bip01_Neck chest
L_humerus chest
R_humerus chest
weapon_bone chest
Bip01_Head Bip01_Neck
eye_left_bone Bip01_Head
eye_right_bone Bip01_Head
L_forearm L_humerus
L_front_hand L_forearm
L_weapon_bone L_forearm
L_front_hand01_01 L_front_hand
L_front_hand02_01 L_front_hand
L_front_hand03_01 L_front_hand
L_front_hand01_02 L_front_hand01_01
L_front_hand02_02 L_front_hand02_01
L_front_hand03_02 L_front_hand03_01
R_forearm R_humerus
R_front_hand R_forearm
R_weapon_bone R_forearm
R_front_hand01_01 R_front_hand
R_front_hand02_01 R_front_hand
R_front_hand03_01 R_front_hand
R_front_hand01_02 R_front_hand01_01
R_front_hand02_02 R_front_hand02_01
R_front_hand03_02 R_front_hand03_01
null_rope01_connect L_mid_tent01
Rope1_Seg01 null_rope01_connect
Rope1_Seg02 Rope1_Seg01
Rope1_Seg03 Rope1_Seg02
Rope1_Seg04 Rope1_Seg03
Rope1_Seg05 Rope1_Seg04
Rope1_Seg06 Rope1_Seg05
Rope1_Seg07 Rope1_Seg06
Rope1_Seg09 Rope1_Seg07
L_mid_hand01 Rope1_Seg09
L_mid_hand02 Rope1_Seg09
L_mid_hand03 Rope1_Seg09
null_rope02_connect R_mid_tent01
Rope2_Seg01 null_rope02_connect
Rope2_Seg02 Rope2_Seg01
Rope2_Seg03 Rope2_Seg02
Rope2_Seg04 Rope2_Seg03
Rope2_Seg05 Rope2_Seg04
Rope2_Seg06 Rope2_Seg05
Rope2_Seg07 Rope2_Seg06
Rope2_Seg09 Rope2_Seg07
R_mid_hand01 Rope2_Seg09
R_mid_hand02 Rope2_Seg09
R_mid_hand03 Rope2_Seg09
spine02 spine01
spine03 spine02
pelvis spine03
null_rope03_connect pelvis
null_rope04_connect pelvis
Rope3_Seg01 null_rope03_connect
Rope3_Seg02 Rope3_Seg01
Rope3_Seg03 Rope3_Seg02
Rope3_Seg04 Rope3_Seg03
Rope3_Seg05 Rope3_Seg04
Rope3_Seg06 Rope3_Seg05
Rope3_Seg07 Rope3_Seg06
Rope3_Seg08 Rope3_Seg07
Rope3_Seg09 Rope3_Seg08
R_rear_hand01 Rope3_Seg09
R_rear_hand02 Rope3_Seg09
R_rear_hand03 Rope3_Seg09
Rope4_Seg01 null_rope04_connect
Rope4_Seg02 Rope4_Seg01
Rope4_Seg03 Rope4_Seg02
Rope4_Seg04 Rope4_Seg03
Rope4_Seg05 Rope4_Seg04
Rope4_Seg06 Rope4_Seg05
Rope4_Seg07 Rope4_Seg06
Rope4_Seg08 Rope4_Seg07
Rope4_Seg09 Rope4_Seg08
L_rear_hand01 Rope4_Seg09
L_rear_hand02 Rope4_Seg09
L_rear_hand03 Rope4_Seg09
[BasePosition]
#SegmentName Tx, Ty, Tz, Rx, Ry, Rz, BoneLength
MASTER 0.000000 0.000000 0.000000 -90.000000 0.000000 0.000000 10.000000 
root 0.000000 0.000000 0.000000 0.000000 0.000000 0.000000 10.000000 
chest 0.000000 0.000000 0.000000 0.000000 0.000000 0.000000 10.000000 
L_mid_tent01 0.000000 0.000000 0.000000 0.000000 0.000000 0.000000 10.000000 
R_mid_tent01 0.000000 0.000000 0.000000 0.000000 0.000000 0.000000 10.000000 
spine01 0.000000 0.000000 0.000000 0.000000 0.000000 0.000000 10.000000 
Bip01_Neck 0.000000 0.000000 0.000000 0.000000 0.000000 0.000000 10.000000 
L_humerus 0.000000 0.000000 0.000000 0.000000 0.000000 0.000000 10.000000 
R_humerus 0.000000 0.000000 0.000000 0.000000 0.000000 0.000000 10.000000 
weapon_bone 0.000000 0.000000 0.000000 0.000000 0.000000 0.000000 10.000000 
Bip01_Head 0.000000 0.000000 0.000000 0.000000 0.000000 0.000000 10.000000 
eye_left_bone 0.000000 0.000000 0.000000 0.000000 0.000000 0.000000 10.000000 
eye_right_bone 0.000000 0.000000 0.000000 0.000000 0.000000 0.000000 10.000000 
L_forearm 0.000000 0.000000 0.000000 0.000000 0.000000 0.000000 10.000000 
L_front_hand 0.000000 0.000000 0.000000 0.000000 0.000000 0.000000 10.000000 
L_weapon_bone 0.000000 0.000000 0.000000 0.000000 0.000000 0.000000 10.000000 
L_front_hand01_01 0.000000 0.000000 0.000000 0.000000 0.000000 0.000000 10.000000 
L_front_hand02_01 0.000000 0.000000 0.000000 0.000000 0.000000 0.000000 10.000000 
L_front_hand03_01 0.000000 0.000000 0.000000 0.000000 0.000000 0.000000 10.000000 
L_front_hand01_02 0.000000 0.000000 0.000000 0.000000 0.000000 0.000000 10.000000 
L_front_hand02_02 0.000000 0.000000 0.000000 0.000000 0.000000 0.000000 10.000000 
L_front_hand03_02 0.000000 0.000000 0.000000 0.000000 0.000000 0.000000 10.000000 
R_forearm 0.000000 0.000000 0.000000 0.000000 0.000000 0.000000 10.000000 
R_front_hand 0.000000 0.000000 0.000000 0.000000 0.000000 0.000000 10.000000 
R_weapon_bone 0.000000 0.000000 0.000000 0.000000 0.000000 0.000000 10.000000 
R_front_hand01_01 0.000000 0.000000 0.000000 0.000000 0.000000 0.000000 10.000000 
R_front_hand02_01 0.000000 0.000000 0.000000 0.000000 0.000000 0.000000 10.000000 
R_front_hand03_01 0.000000 0.000000 0.000000 0.000000 0.000000 0.000000 10.000000 
R_front_hand01_02 0.000000 0.000000 0.000000 0.000000 0.000000 0.000000 10.000000 
R_front_hand02_02 0.000000 0.000000 0.000000 0.000000 0.000000 0.000000 10.000000 
R_front_hand03_02 0.000000 0.000000 0.000000 0.000000 0.000000 0.000000 10.000000 
null_rope01_connect 0.000000 0.000000 0.000000 0.000000 0.000000 0.000000 10.000000 
Rope1_Seg01 0.000000 0.000000 0.000000 0.000000 0.000000 0.000000 10.000000 
Rope1_Seg02 0.000000 0.000000 0.000000 0.000000 0.000000 0.000000 10.000000 
Rope1_Seg03 0.000000 0.000000 0.000000 0.000000 0.000000 0.000000 10.000000 
Rope1_Seg04 0.000000 0.000000 0.000000 0.000000 0.000000 0.000000 10.000000 
Rope1_Seg05 0.000000 0.000000 0.000000 0.000000 0.000000 0.000000 10.000000 
Rope1_Seg06 0.000000 0.000000 0.000000 0.000000 0.000000 0.000000 10.000000 
Rope1_Seg07 0.000000 0.000000 0.000000 0.000000 0.000000 0.000000 10.000000 
Rope1_Seg09 0.000000 0.000000 0.000000 0.000000 0.000000 0.000000 10.000000 
L_mid_hand01 0.000000 0.000000 0.000000 0.000000 0.000000 0.000000 10.000000 
L_mid_hand02 0.000000 0.000000 0.000000 0.000000 0.000000 0.000000 10.000000 
L_mid_hand03 0.000000 0.000000 0.000000 0.000000 0.000000 0.000000 10.000000 
null_rope02_connect 0.000000 0.000000 0.000000 0.000000 0.000000 0.000000 10.000000 
Rope2_Seg01 0.000000 0.000000 0.000000 0.000000 0.000000 0.000000 10.000000 
Rope2_Seg02 0.000000 0.000000 0.000000 0.000000 0.000000 0.000000 10.000000 
Rope2_Seg03 0.000000 0.000000 0.000000 0.000000 0.000000 0.000000 10.000000 
Rope2_Seg04 0.000000 0.000000 0.000000 0.000000 0.000000 0.000000 10.000000 
Rope2_Seg05 0.000000 0.000000 0.000000 0.000000 0.000000 0.000000 10.000000 
Rope2_Seg06 0.000000 0.000000 0.000000 0.000000 0.000000 0.000000 10.000000 
Rope2_Seg07 0.000000 0.000000 0.000000 0.000000 0.000000 0.000000 10.000000 
Rope2_Seg09 0.000000 0.000000 0.000000 0.000000 0.000000 0.000000 10.000000 
R_mid_hand01 0.000000 0.000000 0.000000 0.000000 0.000000 0.000000 10.000000 
R_mid_hand02 0.000000 0.000000 0.000000 0.000000 0.000000 0.000000 10.000000 
R_mid_hand03 0.000000 0.000000 0.000000 0.000000 0.000000 0.000000 10.000000 
spine02 0.000000 0.000000 0.000000 0.000000 0.000000 0.000000 10.000000 
spine03 0.000000 0.000000 0.000000 0.000000 0.000000 0.000000 10.000000 
pelvis 0.000000 0.000000 0.000000 0.000000 0.000000 0.000000 10.000000 
null_rope03_connect 0.000000 0.000000 0.000000 0.000000 0.000000 0.000000 10.000000 
null_rope04_connect 0.000000 0.000000 0.000000 0.000000 0.000000 0.000000 10.000000 
Rope3_Seg01 0.000000 0.000000 0.000000 0.000000 0.000000 0.000000 10.000000 
Rope3_Seg02 0.000000 0.000000 0.000000 0.000000 0.000000 0.000000 10.000000 
Rope3_Seg03 0.000000 0.000000 0.000000 0.000000 0.000000 0.000000 10.000000 
Rope3_Seg04 0.000000 0.000000 0.000000 0.000000 0.000000 0.000000 10.000000 
Rope3_Seg05 0.000000 0.000000 0.000000 0.000000 0.000000 0.000000 10.000000 
Rope3_Seg06 0.000000 0.000000 0.000000 0.000000 0.000000 0.000000 10.000000 
Rope3_Seg07 0.000000 0.000000 0.000000 0.000000 0.000000 0.000000 10.000000 
Rope3_Seg08 0.000000 0.000000 0.000000 0.000000 0.000000 0.000000 10.000000 
Rope3_Seg09 0.000000 0.000000 0.000000 0.000000 0.000000 0.000000 10.000000 
R_rear_hand01 0.000000 0.000000 0.000000 0.000000 0.000000 0.000000 10.000000 
R_rear_hand02 0.000000 0.000000 0.000000 0.000000 0.000000 0.000000 10.000000 
R_rear_hand03 0.000000 0.000000 0.000000 0.000000 0.000000 0.000000 10.000000 
Rope4_Seg01 0.000000 0.000000 0.000000 0.000000 0.000000 0.000000 10.000000 
Rope4_Seg02 0.000000 0.000000 0.000000 0.000000 0.000000 0.000000 10.000000 
Rope4_Seg03 0.000000 0.000000 0.000000 0.000000 0.000000 0.000000 10.000000 
Rope4_Seg04 0.000000 0.000000 0.000000 0.000000 0.000000 0.000000 10.000000 
Rope4_Seg05 0.000000 0.000000 0.000000 0.000000 0.000000 0.000000 10.000000 
Rope4_Seg06 0.000000 0.000000 0.000000 0.000000 0.000000 0.000000 10.000000 
Rope4_Seg07 0.000000 0.000000 0.000000 0.000000 0.000000 0.000000 10.000000 
Rope4_Seg08 0.000000 0.000000 0.000000 0.000000 0.000000 0.000000 10.000000 
Rope4_Seg09 0.000000 0.000000 0.000000 0.000000 0.000000 0.000000 10.000000 
L_rear_hand01 0.000000 0.000000 0.000000 0.000000 0.000000 0.000000 10.000000 
L_rear_hand02 0.000000 0.000000 0.000000 0.000000 0.000000 0.000000 10.000000 
L_rear_hand03 0.000000 0.000000 0.000000 0.000000 0.000000 0.000000 10.000000 
#Beginning of Data. Separated by tabs
#Fr	Tx	Ty	Tz	Rx	Ry	Rz	SF
[MASTER]
10 0.000000 0.000000 0.000000 0.001660 0.001660 0.001660 0.000000
11 0.000000 0.000000 0.000000 0.001660 0.001660 0.001660 0.000000
[root]
10 366.986206 115.710876 1263.346436 -88.721542 -11.530813 -90.641823 1320.648315
11 409.051819 94.578438 1296.425903 -89.083801 -14.378634 -90.628464 1362.713745
[chest]
10 -84.512650 -34.090519 0.000000 1.465267 3.732579 149.641953 91.129311
11 -84.512650 -34.090519 0.000000 2.287489 3.739690 152.925217 91.129311
[L_mid_tent01]
10 27.299236 22.178658 -249.918564 -18.411438 44.210171 53.706673 252.381516
11 27.299231 22.178680 -249.918564 -12.091771 41.858662 58.807289 252.381516
[R_mid_tent01]
10 23.228794 24.509907 226.238495 170.159119 -25.261662 92.905151 228.744751
11 23.228794 24.509907 226.238495 167.365433 -25.502073 89.632065 228.744751
[spine01]
10 -0.361383 -0.195265 0.000000 0.001916 0.001356 19.444027 0.410763
11 -0.361383 -0.195265 0.000000 0.001917 0.001354 19.540609 0.410763
[Bip01_Neck]
10 165.484543 71.581718 0.000119 176.643677 -1.657967 43.431911 180.302734
11 165.484543 71.581718 0.000119 176.643677 -1.657967 43.431911 180.302734
[L_humerus]
10 -13.983130 -135.272980 -120.471481 171.390045 25.651388 -157.708298 181.680161
11 -13.983130 -135.272980 -120.471481 173.908020 24.245203 -159.118576 181.680161
[R_humerus]
10 -13.983309 -135.273102 125.287651 -178.925537 -19.390930 -153.991913 184.909012
11 -13.983309 -135.273102 125.287651 -178.691132 -15.104488 -153.840118 184.909012
[weapon_bone]
10 235.964890 -300.705902 0.000000 0.000000 -89.951546 -128.212341 382.234833
11 235.964890 -300.705902 0.000000 0.000000 -89.951546 -128.212341 382.234833
[Bip01_Head]
10 213.441040 185.724701 11.658859 -2.385932 11.111616 -40.830231 283.172516
11 213.441574 185.723175 11.678537 -1.947030 11.115016 -40.827057 283.172729
[eye_left_bone]
10 -24.626970 125.451866 -64.772606 0.000000 -90.000000 -99.840431 143.318359
11 -24.626970 125.451866 -64.772606 0.000000 -90.000000 -99.840431 143.318359
[eye_right_bone]
10 -24.626970 125.451866 64.327362 0.000000 -89.965736 80.156380 143.117676
11 -24.626970 125.451866 64.327362 0.000000 -89.965736 80.156380 143.117676
[L_forearm]
10 322.776093 0.000000 -0.000119 0.000407 0.002312 -70.011444 322.776093
11 322.776093 0.000000 -0.000119 0.000375 0.002317 -71.595078 322.776093
[L_front_hand]
10 241.149185 -0.042021 -3.300071 159.713272 -1.837100 -27.424072 241.171753
11 241.149185 -0.042021 -3.300071 157.242752 -1.837689 -27.423477 241.171753
[L_weapon_bone]
10 156.183838 0.000000 0.000000 0.000014 0.000007 0.000001 156.183838
11 156.183838 0.000000 0.000000 0.000014 0.000007 0.000001 156.183838
[L_front_hand01_01]
10 86.095154 20.947098 -0.655860 -0.366594 -0.477154 75.385574 88.609184
11 86.095154 20.947098 -0.655860 -0.366594 -0.477154 75.385574 88.609184
[L_front_hand02_01]
10 86.935165 -11.437475 24.513514 154.399796 -59.883835 -61.369587 91.046425
11 86.935165 -11.437475 24.513514 154.399796 -59.883835 -61.369587 91.046425
[L_front_hand03_01]
10 86.637497 -14.123976 -20.424902 -153.913849 58.118122 -62.702866 90.126129
11 86.637497 -14.123976 -20.424902 -153.913849 58.118122 -62.702866 90.126129
[L_front_hand01_02]
10 71.020905 -0.000179 0.000030 0.000334 -0.002323 -106.379684 71.020905
11 71.020905 -0.000179 0.000030 0.000334 -0.002323 -106.379684 71.020905
[L_front_hand02_02]
10 71.020927 -0.000119 0.000060 0.000334 -0.002323 -106.379684 71.020927
11 71.020927 -0.000119 0.000060 0.000334 -0.002323 -106.379684 71.020927
[L_front_hand03_02]
10 71.020905 -0.000060 0.000060 0.000334 -0.002323 -106.379684 71.020905
11 71.020905 -0.000060 0.000060 0.000334 -0.002323 -106.379684 71.020905
[R_forearm]
10 322.776428 -0.000060 0.000030 0.160447 -0.141741 -49.867168 322.776428
11 322.776428 -0.000060 0.000030 0.165148 -0.132351 -51.838589 322.776428
[R_front_hand]
10 238.847015 -0.006795 2.210259 103.810097 -10.645380 -26.312757 238.857239
11 238.847015 -0.006795 2.210259 75.638519 -10.643689 -26.311438 238.857239
[R_weapon_bone]
10 155.664093 0.002503 -0.000030 0.003487 0.001180 -90.988930 155.664078
11 155.664093 0.002503 -0.000030 0.003487 0.001180 -90.988930 155.664078
[R_front_hand01_01]
10 87.624611 14.231146 22.918642 -154.633499 -59.950619 61.746044 91.683487
11 87.624611 14.231146 22.918642 -154.633499 -59.950619 61.746044 91.683487
[R_front_hand02_01]
10 89.356956 14.367283 -19.491137 154.602661 58.302849 63.744389 92.579636
11 89.356956 14.367283 -19.491137 154.602661 58.302849 63.744389 92.579636
[R_front_hand03_01]
10 87.286232 -22.307278 -0.143439 0.162155 -0.423168 -75.767921 90.091743
11 87.286232 -22.307278 -0.143439 0.162155 -0.423168 -75.767921 90.091743
[R_front_hand01_02]
10 71.020905 0.000060 0.000119 0.002323 -0.000334 106.381714 71.020905
11 71.020905 0.000060 0.000119 0.002323 -0.000334 106.381714 71.020905
[R_front_hand02_02]
10 71.020844 -0.000030 -0.000119 0.002323 -0.000334 106.381714 71.020836
11 71.020844 -0.000030 -0.000119 0.002323 -0.000334 106.381714 71.020836
[R_front_hand03_02]
10 71.020905 0.000000 0.000030 0.002323 -0.000334 106.381714 71.020905
11 71.020905 0.000000 0.000030 0.002323 -0.000334 106.381714 71.020905
[null_rope01_connect]
10 328.732483 0.000000 -0.000238 -156.897232 -43.859478 -163.165329 328.732483
11 328.732483 0.000000 -0.000238 -151.396729 -47.338783 -167.971542 328.732483
[Rope1_Seg01]
10 -0.000010 -0.000060 0.000038 115.666260 46.410233 142.110397 0.000071
11 -0.000006 -0.000059 0.000042 121.686867 47.655724 150.626877 0.000073
[Rope1_Seg02]
10 139.999863 -0.000179 0.000000 -2.878071 13.046099 -4.097618 139.999863
11 139.999863 -0.000179 0.000000 -4.633894 15.047174 -4.920326 139.999863
[Rope1_Seg03]
10 139.999924 0.000060 -0.000060 -9.112581 20.145588 -5.601596 139.999924
11 139.999924 0.000060 -0.000060 -11.129974 19.182753 -5.730224 139.999924
[Rope1_Seg04]
10 139.999924 -0.000060 -0.000119 -15.228621 18.188416 -2.157017 139.999924
11 139.999924 -0.000060 -0.000119 -13.678306 13.154802 0.116772 139.999924
[Rope1_Seg05]
10 139.999832 0.000119 -0.000060 -5.391138 4.284708 1.033564 139.999832
11 139.999832 0.000119 -0.000060 -8.230153 3.940967 4.666063 139.999832
[Rope1_Seg06]
10 139.999954 0.000119 -0.000060 -8.178440 5.742522 1.750470 139.999954
11 139.999954 0.000119 -0.000060 -8.899825 4.907301 4.645895 139.999954
[Rope1_Seg07]
10 139.999985 0.000060 0.000000 -7.013749 4.235489 1.953537 139.999985
11 139.999985 0.000060 0.000000 -5.738193 2.845523 3.554916 139.999985
[Rope1_Seg09]
10 121.602913 0.000119 -0.000089 -89.793175 -1.359789 0.847147 121.602913
11 121.602913 0.000119 -0.000089 -89.793175 -1.359789 0.847147 121.602913
[L_mid_hand01]
10 103.859421 1.038730 8.195221 109.056198 -40.604698 -13.201401 104.187431
11 103.859421 1.038730 8.195221 109.056198 -40.604698 -13.201401 104.187431
[L_mid_hand02]
10 105.572853 -4.139662 -10.864139 -146.713593 31.476528 -37.902313 106.211075
11 105.572853 -4.139662 -10.864139 -146.713593 31.476517 -37.902306 106.211075
[L_mid_hand03]
10 104.641464 17.579376 -3.913581 -14.267233 12.322316 43.898396 106.179977
11 104.641464 17.579376 -3.913581 -14.267233 12.322316 43.898396 106.179977
[null_rope02_connect]
10 328.732849 0.000179 -0.000119 -151.091431 62.113026 17.831579 328.732849
11 328.732849 0.000179 -0.000119 -139.376221 61.325645 22.780766 328.732849
[Rope2_Seg01]
10 -0.000005 0.000086 0.000086 -115.226219 62.479710 -11.554319 0.000121
11 -0.000001 0.000087 0.000083 -123.130608 63.156391 -17.739834 0.000120
[Rope2_Seg02]
10 139.999741 -0.000060 -0.000119 -11.943429 8.304084 11.449757 139.999756
11 139.999741 -0.000060 -0.000119 -12.119911 9.036952 10.238063 139.999756
[Rope2_Seg03]
10 140.000107 0.000030 0.000000 -14.071488 7.647950 14.600920 140.000107
11 140.000107 0.000030 0.000000 -14.849868 8.667574 12.808703 140.000107
[Rope2_Seg04]
10 139.999802 0.000000 -0.000060 -12.815562 3.589736 16.952417 139.999802
11 139.999802 0.000000 -0.000060 -14.401035 4.791187 15.287924 139.999802
[Rope2_Seg05]
10 139.999985 -0.000060 0.000119 -9.117282 -8.512731 21.036861 139.999985
11 139.999985 -0.000060 0.000119 -10.602617 -8.842983 20.670103 139.999985
[Rope2_Seg06]
10 139.999893 -0.000030 -0.000119 -2.160996 -6.558423 10.201421 139.999893
11 139.999893 -0.000030 -0.000119 -2.813217 -7.530211 10.523139 139.999893
[Rope2_Seg07]
10 139.999893 0.000060 -0.000060 -0.504000 -2.843572 4.809459 139.999893
11 139.999893 0.000060 -0.000060 -0.764020 -3.341592 5.022912 139.999893
[Rope2_Seg09]
10 121.338966 0.000089 -0.000060 33.793236 -1.359788 -0.847141 121.338966
11 121.338966 0.000089 -0.000060 33.793236 -1.359788 -0.847141 121.338966
[R_mid_hand01]
10 104.680779 11.144459 -10.335981 -37.204079 31.906813 37.576260 105.778534
11 104.680779 11.144459 -10.335981 -37.204079 31.906813 37.576267 105.778534
[R_mid_hand02]
10 104.070427 2.443552 8.231699 70.367462 -42.427391 14.067809 104.424065
11 104.070427 2.443552 8.231699 70.367462 -42.427391 14.067809 104.424065
[R_mid_hand03]
10 106.028137 -11.221827 -5.996406 -169.893616 12.226661 -47.211018 106.788818
11 106.028137 -11.221827 -5.996406 -169.893616 12.226661 -47.211025 106.788818
[spine02]
10 129.756927 0.001550 0.000119 -0.212506 -4.053867 -4.846947 129.756927
11 129.756927 0.001550 0.000119 -0.191333 -4.055057 -5.146596 129.756927
[spine03]
10 78.614014 0.083418 -4.898963 1.554772 3.981528 11.450513 78.766556
11 78.614014 0.083357 -4.898965 1.567601 3.976532 11.636828 78.766556
[pelvis]
10 169.435242 0.051022 0.000000 -0.025437 -0.189233 3.925907 169.435257
11 169.435242 0.051022 0.000000 -0.026695 -0.188977 4.303507 169.435257
[null_rope03_connect]
10 -1.257226 -2.466202 137.391083 -11.912204 -88.160805 83.523239 137.418976
11 -1.257226 -2.466202 137.391083 -14.196983 -88.501709 88.286354 137.418976
[null_rope04_connect]
10 -1.259640 -2.480268 -137.844437 -11.912204 -88.160805 83.523239 137.872513
11 -1.259640 -2.480268 -137.844437 -14.196983 -88.501709 88.286354 137.872513
[Rope3_Seg01]
10 0.000010 0.000038 -0.000114 -141.300018 -20.614365 -44.959682 0.000121
11 0.000010 0.000038 -0.000114 -146.471680 -28.540510 -46.174084 0.000121
[Rope3_Seg02]
10 139.999924 -0.000119 0.000060 11.177111 -19.011005 27.664803 139.999924
11 139.999924 -0.000119 0.000060 8.368974 -10.049776 24.716404 139.999924
[Rope3_Seg03]
10 139.999924 -0.000119 0.000119 4.091065 -13.945628 15.879917 139.999924
11 139.999924 -0.000119 0.000119 2.222066 -4.874057 11.383085 139.999924
[Rope3_Seg04]
10 139.999924 0.000119 0.000000 0.745948 5.132851 11.460567 139.999924
11 139.999924 0.000119 0.000000 0.642511 -0.574522 15.436523 139.999924
[Rope3_Seg05]
10 139.999924 -0.000238 0.000060 3.147377 16.703825 12.306223 139.999924
11 139.999924 -0.000238 0.000060 -1.678642 2.269172 22.605295 139.999924
[Rope3_Seg06]
10 139.999893 -0.000119 -0.000060 2.859269 9.435880 7.141879 139.999893
11 139.999893 -0.000119 -0.000060 -2.898621 0.687507 12.501231 139.999893
[Rope3_Seg07]
10 139.999771 0.000060 -0.000119 1.928824 4.959445 4.007174 139.999771
11 139.999771 0.000060 -0.000119 -2.223757 -0.103049 6.596198 139.999771
[Rope3_Seg08]
10 139.999985 -0.000060 0.000000 1.526035 3.004303 2.273294 139.999985
11 139.999985 -0.000060 0.000000 -1.385728 -0.205073 3.773714 139.999985
[Rope3_Seg09]
10 90.185997 -0.000179 -0.000060 89.793228 -1.359877 -0.847183 90.185997
11 90.185997 -0.000179 -0.000060 89.793228 -1.359877 -0.847183 90.185997
[R_rear_hand01]
10 103.366196 -6.073594 -10.757982 -164.755127 19.627697 -40.352161 104.101845
11 103.366196 -6.073594 -10.757982 -164.755127 19.627697 -40.352161 104.101845
[R_rear_hand02]
10 100.509819 12.039542 -7.992327 -30.792652 24.782448 38.141541 101.543350
11 100.509819 12.039542 -7.992327 -30.792652 24.782448 38.141541 101.543350
[R_rear_hand03]
10 101.539970 5.215704 5.435467 82.448349 -41.048256 8.840378 101.819031
11 101.539970 5.215704 5.435467 82.448349 -41.048256 8.840378 101.819031
[Rope4_Seg01]
10 -0.000017 -0.000057 -0.000153 46.324047 -8.096166 -163.593842 0.000164
11 -0.000016 -0.000055 -0.000153 48.434406 -8.525091 -159.623428 0.000163
[Rope4_Seg02]
10 139.999985 0.000060 0.000119 -3.291520 1.470183 -1.416200 139.999985
11 139.999985 0.000060 0.000119 -0.906127 -1.989340 -1.565562 139.999985
[Rope4_Seg03]
10 139.999924 0.000000 -0.000238 -4.430295 2.238979 -1.926554 139.999924
11 139.999924 0.000000 -0.000238 -2.180513 -2.983666 -2.673242 139.999924
[Rope4_Seg04]
10 139.999985 0.000000 0.000119 -13.345884 4.954268 -7.145838 139.999985
11 139.999985 0.000000 0.000119 -34.599888 -7.587568 -14.871501 139.999985
[Rope4_Seg05]
10 139.999802 -0.000060 -0.000119 0.270284 5.741264 2.689493 139.999802
11 139.999802 -0.000060 -0.000119 57.965004 -13.152668 18.113989 139.999802
[Rope4_Seg06]
10 139.999924 0.000000 0.000060 13.416708 -3.330825 12.234432 139.999924
11 139.999924 0.000000 0.000060 8.971379 4.695277 7.877737 139.999924
[Rope4_Seg07]
10 139.999802 0.000000 0.000000 3.438981 0.645752 3.940620 139.999802
11 139.999802 0.000000 0.000000 2.463041 1.689524 2.506910 139.999802
[Rope4_Seg08]
10 139.999924 0.000000 0.000119 0.209013 0.502262 2.163992 139.999924
11 139.999924 0.000000 0.000119 -0.343242 0.975046 1.319323 139.999924
[Rope4_Seg09]
10 90.185791 0.000060 0.000060 -135.617828 2.228885 0.850567 90.185791
11 90.185791 0.000060 0.000060 -135.617828 2.228885 0.850567 90.185791
[L_rear_hand01]
10 101.696655 -8.392275 -7.654577 -31.684452 -23.583008 144.025742 102.329041
11 101.696655 -8.392275 -7.654577 -31.684452 -23.583008 144.025742 102.329041
[L_rear_hand02]
10 102.726799 -1.568258 5.773216 82.701553 38.753956 171.553619 102.900848
11 102.726799 -1.568258 5.773216 82.701553 38.753956 171.553619 102.900848
[L_rear_hand03]
10 104.552910 9.721220 -10.420293 -163.975403 -19.004421 -142.009338 105.519653
11 104.552910 9.721220 -10.420293 -163.975388 -19.004423 -142.009338 105.519653
